<?xml version="1.0" standalone="no"?>
<!DOCTYPE svg PUBLIC "-//W3C//DTD SVG 20010904//EN"
 "http://www.w3.org/TR/2001/REC-SVG-20010904/DTD/svg10.dtd">
<svg version="1.0" xmlns="http://www.w3.org/2000/svg"
 width="1024.000000pt" height="1024.000000pt" viewBox="0 0 1024.000000 1024.000000"
 preserveAspectRatio="xMidYMid meet">

<g transform="translate(0.000000,1024.000000) scale(0.100000,-0.100000)"
fill="#000000" stroke="none">
<path d="M0 5120 l0 -5120 5120 0 5120 0 0 5120 0 5120 -5120 0 -5120 0 0
-5120z m6372 1601 c314 -73 518 -258 588 -534 24 -94 40 -247 40 -373 l0 -94
-325 0 -325 0 0 90 c0 184 -49 298 -152 351 -116 59 -249 14 -310 -105 -51
-100 -51 -94 -55 -830 -5 -724 -1 -805 38 -896 27 -62 84 -115 141 -131 60
-16 164 -7 215 19 116 60 162 200 163 495 l0 107 -155 0 -155 0 0 245 0 245
458 0 457 0 -3 -657 c-3 -600 4 -868 25 -965 l5 -28 -225 0 -225 0 -7 74 c-4
41 -6 93 -3 114 l3 40 -53 -59 c-169 -186 -415 -250 -707 -184 -166 38 -277
97 -386 205 -96 95 -143 170 -183 295 -58 179 -58 190 -63 960 -6 890 1 969
101 1180 121 255 334 408 634 455 96 15 365 4 464 -19z m-4047 4 c279 -49 516
-227 601 -453 36 -94 52 -189 60 -346 l7 -136 -310 0 -310 0 -6 108 c-6 127
-26 190 -76 242 -91 96 -298 89 -374 -12 -38 -51 -50 -101 -45 -193 8 -161 64
-227 363 -434 453 -314 507 -356 595 -467 135 -170 189 -363 177 -634 -10
-221 -63 -360 -191 -497 -117 -126 -261 -207 -453 -255 -76 -20 -114 -23 -283
-23 -234 0 -316 17 -479 96 -87 43 -116 63 -185 132 -158 158 -216 338 -216
669 l0 128 314 0 313 0 6 -132 c6 -153 27 -226 84 -289 48 -53 103 -72 201
-68 66 3 86 9 128 34 30 19 60 49 79 80 28 46 30 54 30 154 0 98 -2 111 -31
171 -50 103 -91 142 -313 289 -494 328 -614 434 -711 628 -64 130 -74 183 -75
388 0 193 10 255 62 380 76 182 257 343 461 410 140 45 407 59 577 30z m2207
-95 c10 -47 72 -364 138 -705 67 -341 139 -712 161 -825 84 -431 254 -1249
294 -1418 l5 -22 -327 2 -327 3 -58 280 c-31 154 -57 283 -57 288 -1 4 -131 7
-290 7 l-288 0 -47 -287 c-26 -158 -49 -289 -50 -290 -2 -2 -144 -2 -317 -1
l-315 3 48 225 c26 124 70 349 98 500 28 151 89 473 135 715 46 242 94 490
105 550 84 442 207 1041 216 1057 3 5 197 7 432 6 l427 -3 17 -85z m4038 84
c0 -3 38 -196 85 -428 78 -389 175 -887 339 -1741 36 -187 90 -461 121 -608
30 -147 55 -270 55 -272 0 -3 -146 -5 -324 -5 l-324 0 -31 163 c-16 89 -41
219 -53 290 l-23 127 -292 0 -292 0 -6 -32 c-3 -18 -25 -148 -49 -288 l-42
-255 -327 -3 c-180 -1 -327 0 -327 2 0 2 32 148 71 323 72 326 128 602 294
1463 109 567 205 1046 236 1179 l21 91 434 0 c239 0 434 -3 434 -6z"/>
<path d="M4057 5827 c-9 -56 -53 -313 -97 -572 -44 -258 -80 -471 -80 -472 0
-2 90 -3 201 -3 l201 0 -6 28 c-5 24 -34 187 -155 894 -21 120 -40 220 -42
223 -3 2 -13 -42 -22 -98z"/>
<path d="M8127 5915 c-16 -71 -197 -1109 -197 -1127 0 -4 90 -8 200 -8 147 0
200 3 200 12 0 6 -39 235 -86 507 -47 273 -91 530 -98 571 -11 63 -14 70 -19
45z"/>
</g>
</svg>
